Coordinates
version=1
nRows=23
nColumns=28
inDegrees=yes

Units are S.I. units (second, meters, Newtons, ...)
Angles are in degrees.

endheader
time	pelvis_tilt	pelvis_list	pelvis_rotation	pelvis_tx	pelvis_ty	pelvis_tz	hip_flexion_r	hip_adduction_r	hip_rotation_r	knee_angle_r	ankle_angle_r	subtalar_angle_r	mtp_angle_r	hip_flexion_l	hip_adduction_l	hip_rotation_l	knee_angle_l	socket_flexion	socket_adduction	socket_rotation	socket_tx	socket_ty	socket_tz	foot_flex	lumbar_extension	lumbar_bending	lumbar_rotation
      0.26666667	      1.63689795	      5.88858180	     -3.93502718	     -0.38620075	      0.98611330	      0.23474382	     12.43352785	     -9.89812420	      2.27429205	    -63.88302040	    -14.09772427	    -12.12056675	     17.62877787	      3.99593823	      9.98726442	     14.17762697	    -12.45665405	      0.00000000	      0.00000000	      0.00000000	      0.00000000	      0.00000000	      0.00000000	      4.54814155	     -8.71957225	     -7.73301773	     -2.13728012
      0.27083333	      1.64641676	      5.62841806	     -3.92734816	     -0.38044542	      0.98709445	      0.23473896	     13.16940695	     -9.59056121	      2.30675033	    -63.90614405	    -13.29283144	    -12.59474750	     17.46156388	      3.34840431	      9.68765640	     14.38913660	    -12.02084816	      0.00000000	      0.00000000	      0.00000000	      0.00000000	      0.00000000	      0.00000000	      4.54636001	     -8.73378953	     -7.40423015	     -2.35406505
      0.27500000	      1.66204842	      5.33425118	     -3.88195294	     -0.37484226	      0.98806106	      0.23477174	     13.88926116	     -9.22499863	      2.30306918	    -63.90630517	    -12.44226670	    -13.12927449	     17.24936032	      2.73309322	      9.34757995	     14.51140213	    -11.64449555	      0.00000000	      0.00000000	      0.00000000	      0.00000000	      0.00000000	      0.00000000	      4.55046454	     -8.79202482	     -7.05515461	     -2.61457667
      0.27916667	      1.66472671	      5.05885376	     -3.83134770	     -0.36923995	      0.98899654	      0.23476376	     14.60398389	     -8.89396064	      2.27968699	    -63.83171082	    -11.71333697	    -13.60699087	     17.03638143	      2.12203943	      9.02840645	     14.66412489	    -11.24724109	      0.00000000	      0.00000000	      0.00000000	      0.00000000	      0.00000000	      0.00000000	      4.54555594	     -8.83630070	     -6.71045145	     -2.85494714
      0.28333333	      1.78957276	      4.68198216	     -3.74488094	     -0.36378661	      0.99017335	      0.23485951	     15.13596153	     -8.38311159	      2.24142616	    -63.70452532	    -10.74663466	    -14.16781914	     13.47392461	      1.39248877	      8.59213249	     14.80994662	    -10.87309326	      0.00000000	      0.00000000	      0.00000000	      0.00000000	      0.00000000	      0.00000000	      4.56057617	     -9.06259376	     -6.26069829	     -3.32288015
      0.28750000	      1.72744132	      4.40993093	     -3.66799317	     -0.35816439	      0.99099398	      0.23488797	     15.87233677	     -8.04351160	      2.19250723	    -63.50778167	    -10.01385188	    -14.52795477	     13.49211214	      0.84103305	      8.25681415	     14.97280510	    -10.44708809	      0.00000000	      0.00000000	      0.00000000	      0.00000000	      0.00000000	      0.00000000	      4.50470095	     -9.02131368	     -5.94839769	     -3.48770266
      0.29166667	      1.69309443	      4.08527669	     -3.58227791	     -0.35273825	      0.99182942	      0.23486435	     16.56489336	     -7.62785730	      2.14740230	    -63.25836192	     -9.24645446	    -15.02619313	     13.41204647	      0.30533473	      7.87797818	     15.10690920	    -10.09715724	      0.00000000	      0.00000000	      0.00000000	      0.00000000	      0.00000000	      0.00000000	      4.51443365	     -9.06176362	     -5.53849155	     -3.78441963
      0.29583333	      1.62972927	      3.84589992	     -3.50136263	     -0.34712521	      0.99255519	      0.23487956	     17.26837633	     -7.34182751	      2.06487369	    -62.94557032	     -8.69330063	    -15.36089202	     13.36015404	     -0.25478940	      7.57499579	     15.28154565	     -9.64098637	      0.00000000	      0.00000000	      0.00000000	      0.00000000	      0.00000000	      0.00000000	      4.46428783	     -9.02463733	     -5.25711555	     -3.95493700
      0.30000000	      1.70239488	      3.40267152	     -3.29791607	     -0.34169940	      0.99366571	      0.23482797	     17.69617639	     -6.77630685	      1.90309127	    -62.45919029	     -8.11929354	    -16.33105720	     12.43379354	     -0.92613106	      7.05244303	     15.52690344	     -9.25988089	      0.00000000	      0.00000000	      0.00000000	      0.00000000	      0.00000000	      0.00000000	      4.44857033	     -9.19812697	     -4.70306496	     -4.60856719
      0.30416667	      1.60289373	      3.12898885	     -3.20461743	     -0.33626901	      0.99431318	      0.23485685	     18.40514042	     -6.41382579	      1.85635975	    -62.03755855	     -7.46328177	    -16.62371257	     12.35396727	     -1.40678713	      6.70452264	     15.65566994	     -8.85093792	      0.00000000	      0.00000000	      0.00000000	      0.00000000	      0.00000000	      0.00000000	      4.38843639	     -9.14893350	     -4.38234844	     -4.72391026
      0.30833333	      1.49075555	      2.80984745	     -3.11094607	     -0.33070578	      0.99496030	      0.23495616	     19.06336467	     -5.98831401	      1.78207007	    -61.51430135	     -6.79192346	    -16.99406384	     12.23072034	     -1.89753799	      6.30018285	     15.80961349	     -8.42358823	      0.00000000	      0.00000000	      0.00000000	      0.00000000	      0.00000000	      0.00000000	      4.32852804	     -9.06380110	     -4.02113112	     -4.92289574
      0.31250000	      1.55426566	      2.38995891	     -2.88500571	     -0.32532327	      0.99591977	      0.23490658	     19.44793450	     -5.46302914	      1.59016098	    -60.86183609	     -6.37107350	    -17.81445457	     10.97605147	     -2.55560869	      5.78932622	     16.05804587	     -8.02495561	      0.00000000	      0.00000000	      0.00000000	      0.00000000	      0.00000000	      0.00000000	      4.32849365	     -9.23129511	     -3.49139762	     -5.55797987
      0.31666667	      1.41127568	      2.08816898	     -2.79099029	     -0.31988689	      0.99642865	      0.23499206	     20.11872599	     -5.05048698	      1.54108298	    -60.24788625	     -5.72722289	    -18.08326489	     10.83517172	     -2.98705069	      5.40195270	     16.18775667	     -7.61859505	      0.00000000	      0.00000000	      0.00000000	      0.00000000	      0.00000000	      0.00000000	      4.27691780	     -9.13123640	     -3.14539827	     -5.66143184
      0.32083333	      1.28692553	      1.76772491	     -2.65998021	     -0.31452556	      0.99694295	      0.23505027	     20.72894387	     -4.61341159	      1.46827722	    -59.54712913	     -5.16054502	    -18.42155836	     10.63176429	     -3.41864078	      4.99225641	     16.32317690	     -7.23593571	      0.00000000	      0.00000000	      0.00000000	      0.00000000	      0.00000000	      0.00000000	      4.22426462	     -9.05690595	     -2.76961848	     -5.86550819
      0.32500000	      1.23535708	      1.36460608	     -2.44205456	     -0.30907164	      0.99761203	      0.23504178	     21.16348940	     -4.09371184	      1.31433132	    -58.71021775	     -4.77416116	    -19.02087702	      9.88555762	     -3.94386679	      4.48463144	     16.51772849	     -6.84237154	      0.00000000	      0.00000000	      0.00000000	      0.00000000	      0.00000000	      0.00000000	      4.24940223	     -9.07948952	     -2.27284385	     -6.36621463
      0.32916667	      1.09523225	      1.08201803	     -2.30928903	     -0.30366852	      0.99800048	      0.23515078	     21.75229923	     -3.70683772	      1.23675778	    -57.91428384	     -4.23677040	    -19.34296135	      9.66038950	     -4.36998547	      4.10454434	     16.67605685	     -6.42844109	      0.00000000	      0.00000000	      0.00000000	      0.00000000	      0.00000000	      0.00000000	      4.14503019	     -8.98534531	     -1.96034790	     -6.50739542
      0.33333333	      1.11894005	      0.65494852	     -2.05992510	     -0.29822594	      0.99874633	      0.23516421	     22.02315734	     -3.16341040	      1.05357012	    -56.90550309	     -3.98254292	    -20.10983764	      8.17749088	     -4.96875586	      3.55813319	     16.90867246	     -6.03831370	      0.00000000	      0.00000000	      0.00000000	      0.00000000	      0.00000000	      0.00000000	      4.16429088	     -9.08780178	     -1.44741434	     -7.10520364
      0.33750000	      0.92909866	      0.35901595	     -1.94202529	     -0.29286811	      0.99896151	      0.23528400	     22.62029308	     -2.74320038	      1.01775624	    -56.00030264	     -3.41012823	    -20.33391486	      7.98022412	     -5.31401672	      3.16809851	     17.01889505	     -5.66697230	      0.00000000	      0.00000000	      0.00000000	      0.00000000	      0.00000000	      0.00000000	      4.11183811	     -8.94276816	     -1.11736512	     -7.18340152
      0.34166667	      0.75341171	      0.03036288	     -1.78354407	     -0.28746371	      0.99918269	      0.23536329	     23.14402902	     -2.30069251	      0.95045627	    -55.00361847	     -2.92971062	    -20.62194448	      7.74382184	     -5.67204772	      2.73546375	     17.14354810	     -5.30165699	      0.00000000	      0.00000000	      0.00000000	      0.00000000	      0.00000000	      0.00000000	      4.05741147	     -8.80769934	     -0.74303353	     -7.36951656
      0.34583333	      0.79589820	     -0.38317017	     -1.49158420	     -0.28204321	      0.99978908	      0.23538679	     23.31433472	     -1.78042278	      0.74573437	    -53.81992530	     -2.80145890	    -21.50820652	      5.91906787	     -6.29124195	      2.18224332	     17.46299161	     -4.87139004	      0.00000000	      0.00000000	      0.00000000	      0.00000000	      0.00000000	      0.00000000	      4.06839684	     -8.93837925	     -0.23588010	     -8.08745355
      0.35000000	      0.56367767	     -0.65722994	     -1.37615527	     -0.27668076	      0.99980274	      0.23555344	     23.86698894	     -1.38226188	      0.74897843	    -52.71825839	     -2.26062917	    -21.64295618	      5.80996055	     -6.55505668	      1.81874589	     17.51224635	     -4.56259993	      0.00000000	      0.00000000	      0.00000000	      0.00000000	      0.00000000	      0.00000000	      4.03963780	     -8.74349462	      0.05558268	     -8.10523284
      0.35416667	      0.35189821	     -0.94533387	     -1.23320271	     -0.27126317	      0.99979571	      0.23573003	     24.34988746	     -0.97307537	      0.72961507	    -51.53598818	     -1.81058920	    -21.85476333	      5.64671016	     -6.85803250	      1.42491313	     17.63092937	     -4.21760028	      0.00000000	      0.00000000	      0.00000000	      0.00000000	      0.00000000	      0.00000000	      4.02870454	     -8.55497686	      0.36418471	     -8.24422839
      0.35833333	      0.34348930	     -1.36891559	     -0.93067917	     -0.26591085	      1.00018506	      0.23565330	     24.48911177	     -0.46153778	      0.56515333	    -50.15893573	     -1.70496439	    -22.58411968	      4.25777997	     -7.34672845	      0.87708869	     17.84201778	     -3.91470554	      0.00000000	      0.00000000	      0.00000000	      0.00000000	      0.00000000	      0.00000000	      4.07230245	     -8.63866507	      0.89782730	     -8.91477170
